<svg xmlns="http://www.w3.org/2000/svg" xmlns:xlink="http://www.w3.org/1999/xlink" width="643"
  height="1598" shape-rendering="optimizeSpeed" style="background: #aaa;font-weight: bold;
    ">

  <g>
    <rect x="50" y="80" width="440" height="30"
      style="fill:#a5d6a7; stroke:#444; stroke-width:1"></rect>

    <line x1="60" y1="80" x2="60" y2="110" style="fill:#a5d6a7; stroke:#444; stroke-width:1"></line>
    <line x1="480" y1="80" x2="480" y2="110" style="fill:#a5d6a7; stroke:#444; stroke-width:1"></line>

    <title>function readDirStructure(path = '.', skipNames = [])</title>
    <text x="75" y="100" font-family="monospace" font-size="13" fill="#222">
      <tspan x="75" y="100">function readDirStructure(path = '.', skipNames = [])</tspan>
    </text>

  </g>
  <g>
    <rect x="87" y="128.5" width="295.2" height="30" rx="3" ry="3"
      style="fill:#90caf9; stroke:#444; stroke-width:1"></rect>
    <title>const {...} = parse(resolve(path))</title>
    <text x="102" y="148.5" font-family="monospace" font-size="13" fill="#222">
      <tspan x="102" y="148.5">const {...} = parse(resolve(path))</tspan>
    </text>


  </g>
  <g>
    <rect x="124" y="177" width="53.4" height="30" rx="2" ry="2"
      style="fill:#90caf9; stroke:#444; stroke-width:1"></rect>
    <title>dir</title>
    <text x="139" y="197" font-family="monospace" font-size="13" fill="#222">
      <tspan x="139" y="197">dir</tspan>
    </text>


  </g>
  <g>
    <rect x="124" y="225.5" width="61.2" height="30" rx="2" ry="2"
      style="fill:#90caf9; stroke:#444; stroke-width:1"></rect>
    <title>base</title>
    <text x="139" y="245.5" font-family="monospace" font-size="13" fill="#222">
      <tspan x="139" y="245.5">base</tspan>
    </text>


  </g>
  <g>
    <rect x="87" y="274" width="420" height="30" rx="3" ry="3"
      style="fill:#90caf9; stroke:#444; stroke-width:1"></rect>

    <line x1="507" y1="284" x2="512" y2="284" style="fill:#a5d6a7; stroke:#444; stroke-width:1"></line>

    <line x1="507" y1="294" x2="512" y2="294" style="fill:#a5d6a7; stroke:#444; stroke-width:1"></line>

    <path d="M512, 278 L528, 289 L512, 300 Z" fill="#a5d6a7" stroke="#444" stroke-width="1"></path>

    <title>return makeReader(skipNames)(dir, base, skipNames)</title>
    <text x="102" y="294" font-family="monospace" font-size="13" fill="#222">
      <tspan x="102" y="294">return makeReader(skipNames)(dir, base, skipNames)</tspan>
    </text>

  </g>
  <g>
    <rect x="50" y="337.5" width="284" height="30"
      style="fill:#a5d6a7; stroke:#444; stroke-width:1"></rect>

    <line x1="60" y1="337.5" x2="60" y2="367.5"
      style="fill:#a5d6a7; stroke:#444; stroke-width:1"></line>
    <line x1="324" y1="337.5" x2="324" y2="367.5"
      style="fill:#a5d6a7; stroke:#444; stroke-width:1"></line>

    <title>function makeReader(skipNames)</title>
    <text x="75" y="357.5" font-family="monospace" font-size="13" fill="#222">
      <tspan x="75" y="357.5">function makeReader(skipNames)</tspan>
    </text>

  </g>
  <g>
    <rect x="87" y="386" width="373.2" height="30" rx="3" ry="3"
      style="fill:#90caf9; stroke:#444; stroke-width:1"></rect>
    <title>const skippingIgnored = filterOut(skipNames)</title>
    <text x="102" y="406" font-family="monospace" font-size="13" fill="#222">
      <tspan x="102" y="406">const skippingIgnored = filterOut(skipNames)</tspan>
    </text>


  </g>
  <g>
    <rect x="87" y="434.5" width="76.8" height="30" rx="3" ry="3"
      style="fill:#90caf9; stroke:#444; stroke-width:1"></rect>

    <line x1="163.8" y1="444.5" x2="168.8" y2="444.5"
      style="fill:#a5d6a7; stroke:#444; stroke-width:1"></line>

    <line x1="163.8" y1="454.5" x2="168.8" y2="454.5"
      style="fill:#a5d6a7; stroke:#444; stroke-width:1"></line>

    <path d="M168.8, 438.5 L184.8, 449.5 L168.8, 460.5 Z" fill="#a5d6a7" stroke="#444"
      stroke-width="1"></path>

    <title>return</title>
    <text x="102" y="454.5" font-family="monospace" font-size="13" fill="#222">
      <tspan x="102" y="454.5">return</tspan>
    </text>

  </g>
  <g>
    <rect x="124" y="498" width="252.79999999999998" height="30"
      style="fill:#a5d6a7; stroke:#444; stroke-width:1"></rect>

    <line x1="134" y1="498" x2="134" y2="528" style="fill:#a5d6a7; stroke:#444; stroke-width:1"></line>
    <line x1="366.79999999999995" y1="498" x2="366.79999999999995" y2="528"
      style="fill:#a5d6a7; stroke:#444; stroke-width:1"></line>

    <title>function readFn(dir, name)</title>
    <text x="149" y="518" font-family="monospace" font-size="13" fill="#222">
      <tspan x="149" y="518">function readFn(dir, name)</tspan>
    </text>

  </g>
  <g>
    <rect x="161" y="546.5" width="147" height="30" rx="3" ry="3"
      style="fill:#90caf9; stroke:#444; stroke-width:1"></rect>
    <title>const ent = {*}</title>
    <text x="176" y="566.5" font-family="monospace" font-size="13" fill="#222">
      <tspan x="176" y="566.5">const ent = {*}</tspan>
    </text>


  </g>
  <g>
    <rect x="198" y="595" width="61.2" height="30" rx="2" ry="2"
      style="fill:#90caf9; stroke:#444; stroke-width:1"></rect>
    <title>name</title>
    <text x="213" y="615" font-family="monospace" font-size="13" fill="#222">
      <tspan x="213" y="615">name</tspan>
    </text>


  </g>
  <g>
    <rect x="161" y="643.5" width="53.4" height="30" rx="2" ry="2"
      style="fill:#FFE082; stroke:#444; stroke-width:1"></rect>
    <title>try</title>
    <text x="176" y="663.5" font-family="monospace" font-size="13" fill="#222">
      <tspan x="176" y="663.5">try</tspan>
    </text>


  </g>
  <g>
    <rect x="198" y="692" width="248.4" height="30" rx="3" ry="3"
      style="fill:#90caf9; stroke:#444; stroke-width:1"></rect>
    <title>const path = join(dir, name)</title>
    <text x="213" y="712" font-family="monospace" font-size="13" fill="#222">
      <tspan x="213" y="712">const path = join(dir, name)</tspan>
    </text>


  </g>
  <g>
    <rect x="198" y="740.5" width="295.2" height="30" rx="3" ry="3"
      style="fill:#90caf9; stroke:#444; stroke-width:1"></rect>
    <title>const allNames = readdirSync(path)</title>
    <text x="213" y="760.5" font-family="monospace" font-size="13" fill="#222">
      <tspan x="213" y="760.5">const allNames = readdirSync(path)</tspan>
    </text>


  </g>
  <g>
    <rect x="198" y="789" width="420" height="30" rx="3" ry="3"
      style="fill:#90caf9; stroke:#444; stroke-width:1"></rect>
    <title>const someNames = allNames.filter(skippingIgnored)</title>
    <text x="213" y="809" font-family="monospace" font-size="13" fill="#222">
      <tspan x="213" y="809">const someNames = allNames.filter(skippingIgnored)</tspan>
    </text>


  </g>
  <g>
    <rect x="198" y="837.5" width="404.4" height="30" rx="3" ry="3"
      style="fill:#90caf9; stroke:#444; stroke-width:1"></rect>
    <title>const children = someNames.map(by(path, readFn))</title>
    <text x="213" y="857.5" font-family="monospace" font-size="13" fill="#222">
      <tspan x="213" y="857.5">const children = someNames.map(by(path, readFn))</tspan>
    </text>


  </g>
  <g>
    <rect x="198" y="886" width="357.59999999999997" height="30" rx="3" ry="3"
      style="fill:#90caf9; stroke:#444; stroke-width:1"></rect>
    <title>ent.children = children.sort(foldersFirst)</title>
    <text x="213" y="906" font-family="monospace" font-size="13" fill="#222">
      <tspan x="213" y="906">ent.children = children.sort(foldersFirst)</tspan>
    </text>


  </g>
  <g>
    <rect x="198" y="934.5" width="154.8" height="30" rx="2" ry="2"
      style="fill:#ef9a9a; stroke:#444; stroke-width:1"></rect>

    <line x1="352.8" y1="947.5" x2="354.8" y2="947.5"
      style="fill:#ef9a9a; stroke:#444; stroke-width:1"></line>

    <line x1="352.8" y1="951.5" x2="354.8" y2="951.5"
      style="fill:#ef9a9a; stroke:#444; stroke-width:1"></line>

    <path d="M354.8, 935.5 L370.8, 949.5 L354.8, 963.5 Z" fill="#ef9a9a" stroke="#444"
      stroke-width="1"></path>

    <title>*catchConverter*</title>
    <text x="213" y="954.5" font-family="monospace" font-size="13" fill="#222">
      <tspan x="213" y="954.5">*catchConverter*</tspan>
    </text>

  </g>
  <g>
    <rect x="161" y="983" width="108" height="30" rx="3" ry="3"
      style="fill:#90caf9; stroke:#444; stroke-width:1"></rect>

    <line x1="269" y1="993" x2="274" y2="993" style="fill:#a5d6a7; stroke:#444; stroke-width:1"></line>

    <line x1="269" y1="1003" x2="274" y2="1003"
      style="fill:#a5d6a7; stroke:#444; stroke-width:1"></line>

    <path d="M274, 987 L290, 998 L274, 1009 Z" fill="#a5d6a7" stroke="#444" stroke-width="1"></path>

    <title>return ent</title>
    <text x="176" y="1003" font-family="monospace" font-size="13" fill="#222">
      <tspan x="176" y="1003">return ent</tspan>
    </text>

  </g>
  <g>
    <rect x="50" y="1046.5" width="276.2" height="30"
      style="fill:#a5d6a7; stroke:#444; stroke-width:1"></rect>

    <line x1="60" y1="1046.5" x2="60" y2="1076.5"
      style="fill:#a5d6a7; stroke:#444; stroke-width:1"></line>
    <line x1="316.2" y1="1046.5" x2="316.2" y2="1076.5"
      style="fill:#a5d6a7; stroke:#444; stroke-width:1"></line>

    <title>function filterOut(skipNames)</title>
    <text x="75" y="1066.5" font-family="monospace" font-size="13" fill="#222">
      <tspan x="75" y="1066.5">function filterOut(skipNames)</tspan>
    </text>

  </g>
  <g>
    <rect x="87" y="1095" width="76.8" height="30" rx="3" ry="3"
      style="fill:#90caf9; stroke:#444; stroke-width:1"></rect>

    <line x1="163.8" y1="1105" x2="168.8" y2="1105"
      style="fill:#a5d6a7; stroke:#444; stroke-width:1"></line>

    <line x1="163.8" y1="1115" x2="168.8" y2="1115"
      style="fill:#a5d6a7; stroke:#444; stroke-width:1"></line>

    <path d="M168.8, 1099 L184.8, 1110 L168.8, 1121 Z" fill="#a5d6a7" stroke="#444"
      stroke-width="1"></path>

    <title>return</title>
    <text x="102" y="1115" font-family="monospace" font-size="13" fill="#222">
      <tspan x="102" y="1115">return</tspan>
    </text>

  </g>
  <g>
    <rect x="124" y="1158.5" width="159.2" height="30"
      style="fill:#a5d6a7; stroke:#444; stroke-width:1"></rect>

    <line x1="134" y1="1158.5" x2="134" y2="1188.5"
      style="fill:#a5d6a7; stroke:#444; stroke-width:1"></line>
    <line x1="273.2" y1="1158.5" x2="273.2" y2="1188.5"
      style="fill:#a5d6a7; stroke:#444; stroke-width:1"></line>

    <title>function(name)</title>
    <text x="149" y="1178.5" font-family="monospace" font-size="13" fill="#222">
      <tspan x="149" y="1178.5">function(name)</tspan>
    </text>

  </g>
  <g>
    <rect x="161" y="1207" width="279.6" height="30" rx="3" ry="3"
      style="fill:#90caf9; stroke:#444; stroke-width:1"></rect>

    <line x1="440.6" y1="1217" x2="445.6" y2="1217"
      style="fill:#a5d6a7; stroke:#444; stroke-width:1"></line>

    <line x1="440.6" y1="1227" x2="445.6" y2="1227"
      style="fill:#a5d6a7; stroke:#444; stroke-width:1"></line>

    <path d="M445.6, 1211 L461.6, 1222 L445.6, 1233 Z" fill="#a5d6a7" stroke="#444"
      stroke-width="1"></path>

    <title>return !skipNames.includes(name)</title>
    <text x="176" y="1227" font-family="monospace" font-size="13" fill="#222">
      <tspan x="176" y="1227">return !skipNames.includes(name)</tspan>
    </text>

  </g>
  <g>
    <rect x="50" y="1270.5" width="245" height="30"
      style="fill:#a5d6a7; stroke:#444; stroke-width:1"></rect>

    <line x1="60" y1="1270.5" x2="60" y2="1300.5"
      style="fill:#a5d6a7; stroke:#444; stroke-width:1"></line>
    <line x1="285" y1="1270.5" x2="285" y2="1300.5"
      style="fill:#a5d6a7; stroke:#444; stroke-width:1"></line>

    <title>function by(path, readFn)</title>
    <text x="75" y="1290.5" font-family="monospace" font-size="13" fill="#222">
      <tspan x="75" y="1290.5">function by(path, readFn)</tspan>
    </text>

  </g>
  <g>
    <rect x="87" y="1319" width="76.8" height="30" rx="3" ry="3"
      style="fill:#90caf9; stroke:#444; stroke-width:1"></rect>

    <line x1="163.8" y1="1329" x2="168.8" y2="1329"
      style="fill:#a5d6a7; stroke:#444; stroke-width:1"></line>

    <line x1="163.8" y1="1339" x2="168.8" y2="1339"
      style="fill:#a5d6a7; stroke:#444; stroke-width:1"></line>

    <path d="M168.8, 1323 L184.8, 1334 L168.8, 1345 Z" fill="#a5d6a7" stroke="#444"
      stroke-width="1"></path>

    <title>return</title>
    <text x="102" y="1339" font-family="monospace" font-size="13" fill="#222">
      <tspan x="102" y="1339">return</tspan>
    </text>

  </g>
  <g>
    <rect x="124" y="1382.5" width="159.2" height="30"
      style="fill:#a5d6a7; stroke:#444; stroke-width:1"></rect>

    <line x1="134" y1="1382.5" x2="134" y2="1412.5"
      style="fill:#a5d6a7; stroke:#444; stroke-width:1"></line>
    <line x1="273.2" y1="1382.5" x2="273.2" y2="1412.5"
      style="fill:#a5d6a7; stroke:#444; stroke-width:1"></line>

    <title>function(name)</title>
    <text x="149" y="1402.5" font-family="monospace" font-size="13" fill="#222">
      <tspan x="149" y="1402.5">function(name)</tspan>
    </text>

  </g>
  <g>
    <rect x="161" y="1431" width="225" height="30" rx="3" ry="3"
      style="fill:#90caf9; stroke:#444; stroke-width:1"></rect>

    <line x1="386" y1="1441" x2="391" y2="1441"
      style="fill:#a5d6a7; stroke:#444; stroke-width:1"></line>

    <line x1="386" y1="1451" x2="391" y2="1451"
      style="fill:#a5d6a7; stroke:#444; stroke-width:1"></line>

    <path d="M391, 1435 L407, 1446 L391, 1457 Z" fill="#a5d6a7" stroke="#444" stroke-width="1"></path>

    <title>return readFn(path, name)</title>
    <text x="176" y="1451" font-family="monospace" font-size="13" fill="#222">
      <tspan x="176" y="1451">return readFn(path, name)</tspan>
    </text>

  </g>
  <g>
    <rect x="50" y="1494.5" width="260.6" height="30"
      style="fill:#a5d6a7; stroke:#444; stroke-width:1"></rect>

    <line x1="60" y1="1494.5" x2="60" y2="1524.5"
      style="fill:#a5d6a7; stroke:#444; stroke-width:1"></line>
    <line x1="300.6" y1="1494.5" x2="300.6" y2="1524.5"
      style="fill:#a5d6a7; stroke:#444; stroke-width:1"></line>

    <title>function foldersFirst(a, b)</title>
    <text x="75" y="1514.5" font-family="monospace" font-size="13" fill="#222">
      <tspan x="75" y="1514.5">function foldersFirst(a, b)</tspan>
    </text>

  </g>
  <g>
    <rect x="87" y="1543" width="279.6" height="30" rx="3" ry="3"
      style="fill:#90caf9; stroke:#444; stroke-width:1"></rect>

    <line x1="366.6" y1="1553" x2="371.6" y2="1553"
      style="fill:#a5d6a7; stroke:#444; stroke-width:1"></line>

    <line x1="366.6" y1="1563" x2="371.6" y2="1563"
      style="fill:#a5d6a7; stroke:#444; stroke-width:1"></line>

    <path d="M371.6, 1547 L387.6, 1558 L371.6, 1569 Z" fill="#a5d6a7" stroke="#444"
      stroke-width="1"></path>

    <title>return !a.children - !b.children</title>
    <text x="102" y="1563" font-family="monospace" font-size="13" fill="#222">
      <tspan x="102" y="1563">return !a.children - !b.children</tspan>
    </text>

  </g>
  <g>
    <rect x="25" y="13.75" width="216.6" height="24"
      style="fill:#fff59d; stroke:#444; stroke-width:1"></rect>
    <circle cx="25" cy="25" r="15" style="fill:#fff59d; stroke:#444; stroke-width:1"></circle>
    <title>Program: source module</title>
    <text x="55" y="30" font-family="monospace" font-size="13" fill="#222">
      <tspan x="55" y="30">Program: source module</tspan>
    </text>
  </g>
  <g>
    <path d="M25, 40 L25 91 Q25 95
                29 95
                L42 95 "
      style="fill:none; stroke:#444; stroke-width:1"></path>
    <path d="M42, 92 L50, 95 L42, 98 Z" fill="#333"></path>
  </g>
  <g>
    <path
      d="M68.5, 110 L68.5 139.5 Q68.5 143.5
                72.5 143.5
                L79 143.5 "
      style="fill:none; stroke:#444; stroke-width:1"></path>
    <path d="M79, 140.5 L87, 143.5 L79, 146.5 Z" fill="#333"></path>
  </g>
  <g>
    <path
      d="M105.5, 158.5 L105.5 188 Q105.5 192
                109.5 192
                L124 192 "
      style="fill:none; stroke:#444; stroke-width:1"></path> false </g>
  <g>
    <path
      d="M105.5, 158.5 L105.5 236.5 Q105.5 240.5
                109.5 240.5
                L124 240.5 "
      style="fill:none; stroke:#444; stroke-width:1"></path> false </g>
  <g>
    <path d="M68.5, 110 L68.5 285 Q68.5 289
                72.5 289
                L79 289 "
      style="fill:none; stroke:#444; stroke-width:1"></path>
    <path d="M79, 286 L87, 289 L79, 292 Z" fill="#333"></path>
  </g>
  <g>
    <path d="M25, 40 L25 348.5 Q25 352.5
                29 352.5
                L42 352.5 "
      style="fill:none; stroke:#444; stroke-width:1"></path>
    <path d="M42, 349.5 L50, 352.5 L42, 355.5 Z" fill="#333"></path>
  </g>
  <g>
    <path d="M68.5, 367.5 L68.5 397 Q68.5 401
                72.5 401
                L79 401 "
      style="fill:none; stroke:#444; stroke-width:1"></path>
    <path d="M79, 398 L87, 401 L79, 404 Z" fill="#333"></path>
  </g>
  <g>
    <path
      d="M68.5, 367.5 L68.5 445.5 Q68.5 449.5
                72.5 449.5
                L79 449.5 "
      style="fill:none; stroke:#444; stroke-width:1"></path>
    <path d="M79, 446.5 L87, 449.5 L79, 452.5 Z" fill="#333"></path>
  </g>
  <g>
    <path
      d="M105.5, 464.5 L105.5 509 Q105.5 513
                109.5 513
                L116 513 "
      style="fill:none; stroke:#444; stroke-width:1"></path>
    <path d="M116, 510 L124, 513 L116, 516 Z" fill="#333"></path>
  </g>
  <g>
    <path
      d="M142.5, 528 L142.5 557.5 Q142.5 561.5
                146.5 561.5
                L153 561.5 "
      style="fill:none; stroke:#444; stroke-width:1"></path>
    <path d="M153, 558.5 L161, 561.5 L153, 564.5 Z" fill="#333"></path>
  </g>
  <g>
    <path
      d="M179.5, 576.5 L179.5 606 Q179.5 610
                183.5 610
                L198 610 "
      style="fill:none; stroke:#444; stroke-width:1"></path> false </g>
  <g>
    <path
      d="M142.5, 528 L142.5 654.5 Q142.5 658.5
                146.5 658.5
                L153 658.5 "
      style="fill:none; stroke:#444; stroke-width:1"></path>
    <path d="M153, 655.5 L161, 658.5 L153, 661.5 Z" fill="#333"></path>
  </g>
  <g>
    <path
      d="M179.5, 673.5 L179.5 703 Q179.5 707
                183.5 707
                L190 707 "
      style="fill:none; stroke:#444; stroke-width:1"></path>
    <path d="M190, 704 L198, 707 L190, 710 Z" fill="#333"></path>
  </g>
  <g>
    <path
      d="M179.5, 673.5 L179.5 751.5 Q179.5 755.5
                183.5 755.5
                L190 755.5 "
      style="fill:none; stroke:#444; stroke-width:1"></path>
    <path d="M190, 752.5 L198, 755.5 L190, 758.5 Z" fill="#333"></path>
  </g>
  <g>
    <path
      d="M179.5, 673.5 L179.5 800 Q179.5 804
                183.5 804
                L190 804 "
      style="fill:none; stroke:#444; stroke-width:1"></path>
    <path d="M190, 801 L198, 804 L190, 807 Z" fill="#333"></path>
  </g>
  <g>
    <path
      d="M179.5, 673.5 L179.5 848.5 Q179.5 852.5
                183.5 852.5
                L190 852.5 "
      style="fill:none; stroke:#444; stroke-width:1"></path>
    <path d="M190, 849.5 L198, 852.5 L190, 855.5 Z" fill="#333"></path>
  </g>
  <g>
    <path
      d="M179.5, 673.5 L179.5 897 Q179.5 901
                183.5 901
                L190 901 "
      style="fill:none; stroke:#444; stroke-width:1"></path>
    <path d="M190, 898 L198, 901 L190, 904 Z" fill="#333"></path>
  </g>
  <g>
    <path
      d="M179.5, 673.5 L179.5 945.5 Q179.5 949.5
                183.5 949.5
                L190 949.5 "
      style="fill:none; stroke:#444; stroke-width:1"></path>
    <path d="M190, 946.5 L198, 949.5 L190, 952.5 Z" fill="#333"></path>
  </g>
  <g>
    <path
      d="M142.5, 528 L142.5 994 Q142.5 998
                146.5 998
                L153 998 "
      style="fill:none; stroke:#444; stroke-width:1"></path>
    <path d="M153, 995 L161, 998 L153, 1001 Z" fill="#333"></path>
  </g>
  <g>
    <path
      d="M25, 40 L25 1057.5 Q25 1061.5
                29 1061.5
                L42 1061.5 "
      style="fill:none; stroke:#444; stroke-width:1"></path>
    <path d="M42, 1058.5 L50, 1061.5 L42, 1064.5 Z" fill="#333"></path>
  </g>
  <g>
    <path
      d="M68.5, 1076.5 L68.5 1106 Q68.5 1110
                72.5 1110
                L79 1110 "
      style="fill:none; stroke:#444; stroke-width:1"></path>
    <path d="M79, 1107 L87, 1110 L79, 1113 Z" fill="#333"></path>
  </g>
  <g>
    <path
      d="M105.5, 1125 L105.5 1169.5 Q105.5 1173.5
                109.5 1173.5
                L116 1173.5 "
      style="fill:none; stroke:#444; stroke-width:1"></path>
    <path d="M116, 1170.5 L124, 1173.5 L116, 1176.5 Z" fill="#333"></path>
  </g>
  <g>
    <path
      d="M142.5, 1188.5 L142.5 1218 Q142.5 1222
                146.5 1222
                L153 1222 "
      style="fill:none; stroke:#444; stroke-width:1"></path>
    <path d="M153, 1219 L161, 1222 L153, 1225 Z" fill="#333"></path>
  </g>
  <g>
    <path
      d="M25, 40 L25 1281.5 Q25 1285.5
                29 1285.5
                L42 1285.5 "
      style="fill:none; stroke:#444; stroke-width:1"></path>
    <path d="M42, 1282.5 L50, 1285.5 L42, 1288.5 Z" fill="#333"></path>
  </g>
  <g>
    <path
      d="M68.5, 1300.5 L68.5 1330 Q68.5 1334
                72.5 1334
                L79 1334 "
      style="fill:none; stroke:#444; stroke-width:1"></path>
    <path d="M79, 1331 L87, 1334 L79, 1337 Z" fill="#333"></path>
  </g>
  <g>
    <path
      d="M105.5, 1349 L105.5 1393.5 Q105.5 1397.5
                109.5 1397.5
                L116 1397.5 "
      style="fill:none; stroke:#444; stroke-width:1"></path>
    <path d="M116, 1394.5 L124, 1397.5 L116, 1400.5 Z" fill="#333"></path>
  </g>
  <g>
    <path
      d="M142.5, 1412.5 L142.5 1442 Q142.5 1446
                146.5 1446
                L153 1446 "
      style="fill:none; stroke:#444; stroke-width:1"></path>
    <path d="M153, 1443 L161, 1446 L153, 1449 Z" fill="#333"></path>
  </g>
  <g>
    <path
      d="M25, 40 L25 1505.5 Q25 1509.5
                29 1509.5
                L42 1509.5 "
      style="fill:none; stroke:#444; stroke-width:1"></path>
    <path d="M42, 1506.5 L50, 1509.5 L42, 1512.5 Z" fill="#333"></path>
  </g>
  <g>
    <path
      d="M68.5, 1524.5 L68.5 1554 Q68.5 1558
                72.5 1558
                L79 1558 "
      style="fill:none; stroke:#444; stroke-width:1"></path>
    <path d="M79, 1555 L87, 1558 L79, 1561 Z" fill="#333"></path>
  </g>
</svg>
